<svg width="148" height="67" viewBox="0 0 148 67" fill="none" xmlns="http://www.w3.org/2000/svg">
<rect x="4.8562" width="40" height="40" rx="20" fill="black"/>
<rect x="53.8562" width="40" height="40" rx="20" fill="black"/>
<rect x="102.856" width="40" height="40" rx="20" fill="black"/>
<path d="M26.1303 17.8707C26.0972 17.5062 25.9497 17.2228 25.6879 17.0206C25.4294 16.8151 25.0598 16.7124 24.5792 16.7124C24.261 16.7124 23.9959 16.7538 23.7838 16.8366C23.5716 16.9195 23.4125 17.0339 23.3065 17.1797C23.2004 17.3222 23.1457 17.4863 23.1424 17.6719C23.1358 17.8243 23.1656 17.9586 23.2319 18.0746C23.3015 18.1906 23.4009 18.2933 23.5302 18.3828C23.6628 18.469 23.8219 18.5452 24.0075 18.6115C24.1931 18.6778 24.4019 18.7358 24.6339 18.7855L25.5089 18.9844C26.0127 19.0938 26.4568 19.2396 26.8413 19.4219C27.2291 19.6042 27.5539 19.8213 27.8157 20.0732C28.0809 20.325 28.2814 20.6151 28.4173 20.9432C28.5532 21.2713 28.6228 21.6392 28.6261 22.0469C28.6228 22.6899 28.4604 23.2417 28.1389 23.7024C27.8174 24.1631 27.355 24.5161 26.7518 24.7614C26.1519 25.0066 25.4277 25.1293 24.5792 25.1293C23.7274 25.1293 22.985 25.0017 22.3519 24.7464C21.7189 24.4912 21.2267 24.1035 20.8754 23.5831C20.5241 23.0627 20.3434 22.4048 20.3335 21.6094H22.69C22.7099 21.9375 22.7977 22.2109 22.9535 22.4297C23.1093 22.6484 23.3231 22.8142 23.5948 22.9268C23.8699 23.0395 24.1881 23.0959 24.5494 23.0959C24.8808 23.0959 25.1625 23.0511 25.3946 22.9616C25.6299 22.8722 25.8105 22.7479 25.9365 22.5888C26.0624 22.4297 26.127 22.2474 26.1303 22.0419C26.127 21.8497 26.0674 21.6856 25.9514 21.5497C25.8354 21.4105 25.6564 21.2912 25.4144 21.1918C25.1758 21.089 24.8709 20.9946 24.4997 20.9084L23.4357 20.6598C22.5541 20.4576 21.8598 20.1312 21.3527 19.6804C20.8455 19.2263 20.5937 18.6132 20.597 17.8409C20.5937 17.2112 20.7627 16.6593 21.1041 16.1854C21.4455 15.7114 21.9178 15.3419 22.521 15.0767C23.1242 14.8116 23.8119 14.679 24.5842 14.679C25.373 14.679 26.0574 14.8132 26.6375 15.0817C27.2208 15.3468 27.6732 15.7197 27.9947 16.2003C28.3162 16.6809 28.4803 17.2377 28.4869 17.8707H26.1303Z" fill="white"/>
<path d="M125.13 17.8707C125.097 17.5062 124.95 17.2228 124.688 17.0206C124.429 16.8151 124.06 16.7124 123.579 16.7124C123.261 16.7124 122.996 16.7538 122.784 16.8366C122.572 16.9195 122.413 17.0339 122.306 17.1797C122.2 17.3222 122.146 17.4863 122.142 17.6719C122.136 17.8243 122.166 17.9586 122.232 18.0746C122.302 18.1906 122.401 18.2933 122.53 18.3828C122.663 18.469 122.822 18.5452 123.007 18.6115C123.193 18.6778 123.402 18.7358 123.634 18.7855L124.509 18.9844C125.013 19.0938 125.457 19.2396 125.841 19.4219C126.229 19.6042 126.554 19.8213 126.816 20.0732C127.081 20.325 127.281 20.6151 127.417 20.9432C127.553 21.2713 127.623 21.6392 127.626 22.0469C127.623 22.6899 127.46 23.2417 127.139 23.7024C126.817 24.1631 126.355 24.5161 125.752 24.7614C125.152 25.0066 124.428 25.1293 123.579 25.1293C122.727 25.1293 121.985 25.0017 121.352 24.7464C120.719 24.4912 120.227 24.1035 119.875 23.5831C119.524 23.0627 119.343 22.4048 119.333 21.6094H121.69C121.71 21.9375 121.798 22.2109 121.954 22.4297C122.109 22.6484 122.323 22.8142 122.595 22.9268C122.87 23.0395 123.188 23.0959 123.549 23.0959C123.881 23.0959 124.163 23.0511 124.395 22.9616C124.63 22.8722 124.811 22.7479 124.936 22.5888C125.062 22.4297 125.127 22.2474 125.13 22.0419C125.127 21.8497 125.067 21.6856 124.951 21.5497C124.835 21.4105 124.656 21.2912 124.414 21.1918C124.176 21.089 123.871 20.9946 123.5 20.9084L122.436 20.6598C121.554 20.4576 120.86 20.1312 120.353 19.6804C119.846 19.2263 119.594 18.6132 119.597 17.8409C119.594 17.2112 119.763 16.6593 120.104 16.1854C120.445 15.7114 120.918 15.3419 121.521 15.0767C122.124 14.8116 122.812 14.679 123.584 14.679C124.373 14.679 125.057 14.8132 125.637 15.0817C126.221 15.3468 126.673 15.7197 126.995 16.2003C127.316 16.6809 127.48 17.2377 127.487 17.8707H125.13Z" fill="#E51515"/>
<path d="M67.2503 17.1821H63.6543V18.2375H67.2503V17.1821Z" fill="white"/>
<path d="M67.2503 12.9607H63.6543V15.0713H67.2503V12.9607Z" fill="white"/>
<path d="M73.5433 17.1821H69.9473V18.2375H73.5433V17.1821Z" fill="white"/>
<path d="M73.5433 12.9607H69.9473V15.0713H73.5433V12.9607Z" fill="white"/>
<path d="M86.7619 27.8144L81.5355 8.61594C81.2664 7.62974 80.4901 7 79.6519 7C79.4526 7 79.2494 7.03611 79.0501 7.11079L79.049 7.11125L75.9672 8.26654C75.6814 8.37423 75.4345 8.55461 75.2282 8.77924C74.9629 7.86354 74.2326 7.20095 73.3628 7.20038H70.1277C69.5078 7.2009 68.9615 7.54199 68.5987 8.06552C68.236 7.54199 67.6896 7.2009 67.0698 7.20038H63.8346C62.7418 7.20101 61.8564 8.23977 61.8562 9.52287V29.6776C61.8564 30.9607 62.7418 31.9994 63.8346 31.9999H67.0698C67.6896 31.9994 68.2359 31.6583 68.5987 31.1348C68.9615 31.6583 69.5078 31.9994 70.1276 31.9999H73.3628C74.4556 31.9994 75.341 30.9607 75.3412 29.6776V13.5972L79.9111 30.3846C80.1806 31.3708 80.9569 32.0005 81.7954 32C81.9951 32 82.1988 31.9639 82.3976 31.8897L85.4796 30.7334C86.3198 30.4176 86.8566 29.5065 86.8562 28.5223C86.8563 28.2874 86.826 28.0483 86.7619 27.8144ZM68.1492 29.6776C68.1482 30.3774 67.6657 30.9431 67.0698 30.9447H63.8346C63.2387 30.9432 62.7563 30.3774 62.7552 29.6776V9.52287C62.7563 8.82314 63.2387 8.25679 63.8346 8.25576H67.0698C67.6657 8.25679 68.1481 8.82309 68.1492 9.52287V29.6776ZM74.4423 29.6776C74.4412 30.3774 73.9587 30.9431 73.3628 30.9447H70.1277C69.5318 30.9432 69.0493 30.3774 69.0483 29.6776V9.52287C69.0493 8.82314 69.5318 8.25679 70.1277 8.25576H73.3628C73.9587 8.25679 74.4412 8.82309 74.4423 9.52287V29.6776ZM85.2057 29.7286L82.1242 30.8844C82.014 30.9256 81.9038 30.9447 81.7954 30.9447C81.3393 30.9442 80.9135 30.6015 80.7673 30.063L75.5412 10.8647C75.5058 10.7354 75.4896 10.606 75.4896 10.4787C75.4899 9.94335 75.782 9.44354 76.2409 9.27199L79.3224 8.11614H79.3229C79.4328 8.07492 79.5431 8.05538 79.6519 8.05538C80.1078 8.0559 80.5333 8.39859 80.6795 8.93755L85.9059 28.1359C85.941 28.2653 85.9572 28.3946 85.9572 28.5224C85.9568 29.0572 85.6649 29.557 85.2057 29.7286Z" fill="white"/>
<path d="M79.0486 7.11137C79.0492 7.11137 79.0497 7.11137 79.0501 7.11091L79.1019 7.09131L79.0486 7.11137Z" fill="white"/>
<path d="M78.3838 17.8396L78.6573 18.8444L82.0829 17.5598L81.809 16.5544L78.3838 17.8396Z" fill="white"/>
<path d="M80.7143 12.5337L77.2891 13.8183L77.8365 15.829L81.2617 14.5439L80.7143 12.5337Z" fill="white"/>
<path d="M7.59162 56.3885C7.63139 55.7422 7.45573 55.2235 7.06463 54.8324C6.67685 54.438 6.11671 54.2408 5.38423 54.2408C4.88707 54.2408 4.43134 54.3319 4.01705 54.5142C3.60275 54.6965 3.25805 54.9467 2.98295 55.2649C2.71117 55.5798 2.54048 55.9394 2.47088 56.3438C2.42779 56.6056 2.43939 56.8426 2.50568 57.0547C2.57528 57.2635 2.68963 57.4491 2.84872 57.6115C3.00781 57.7739 3.20502 57.9181 3.44034 58.044C3.67566 58.1667 3.93916 58.2744 4.23082 58.3672L5.28977 58.6953C5.65104 58.8113 5.98082 58.9455 6.27912 59.098C6.58073 59.2505 6.83428 59.4328 7.03977 59.6449C7.24527 59.8537 7.3911 60.099 7.47727 60.3807C7.56676 60.6624 7.58002 60.9872 7.51705 61.3551C7.42756 61.902 7.21212 62.3875 6.87074 62.8118C6.52936 63.236 6.08688 63.5675 5.54332 63.8061C4.99976 64.0447 4.37334 64.1641 3.66406 64.1641C3.01113 64.1641 2.45762 64.053 2.00355 63.831C1.55279 63.6089 1.2197 63.3007 1.00426 62.9062C0.788826 62.5085 0.705966 62.0511 0.755682 61.5341H1.39205C1.35559 61.955 1.43016 62.3196 1.61577 62.6278C1.80137 62.9328 2.07813 63.1681 2.44602 63.3338C2.81723 63.4995 3.25639 63.5824 3.76349 63.5824C4.31368 63.5824 4.81084 63.4879 5.25497 63.299C5.70241 63.1101 6.07031 62.8482 6.35866 62.5135C6.65033 62.1787 6.83262 61.791 6.90554 61.3501C6.9652 60.9922 6.93206 60.6839 6.80611 60.4254C6.68016 60.1669 6.46638 59.9448 6.16477 59.7592C5.86648 59.5703 5.48698 59.4046 5.02628 59.2621L3.88281 58.9041C3.12713 58.6622 2.57528 58.334 2.22727 57.9197C1.87926 57.5021 1.75497 56.9834 1.8544 56.3636C1.94721 55.83 2.1643 55.361 2.50568 54.9567C2.84706 54.5523 3.27628 54.2358 3.79332 54.0071C4.31037 53.7784 4.87382 53.6641 5.48366 53.6641C6.0902 53.6641 6.60559 53.7817 7.02983 54.017C7.45739 54.2491 7.77225 54.5705 7.97443 54.9815C8.17992 55.3925 8.2545 55.8615 8.19815 56.3885H7.59162ZM14.7209 53.8182H15.397L17.7834 63.1051H17.848L23.3118 53.8182H23.9879L22.2976 64H21.701L23.1527 55.2947H23.093L17.9574 64H17.3707L15.1385 55.2947H15.0788L13.6271 64H13.0305L14.7209 53.8182ZM28.3468 64H27.6905L33.0549 53.8182H33.7708L35.7544 64H35.0982L33.3134 54.6186H33.2587L28.3468 64ZM29.9178 60.1669H34.8098L34.7104 60.7436H29.8184L29.9178 60.1669ZM41.1536 64L42.8439 53.8182H45.981C46.624 53.8182 47.156 53.9441 47.5769 54.196C48.0011 54.4446 48.2994 54.7926 48.4718 55.2401C48.6474 55.6875 48.6872 56.2062 48.5911 56.7962C48.4917 57.3795 48.2812 57.8932 47.9597 58.3374C47.6382 58.7782 47.2256 59.1229 46.7218 59.3714C46.2213 59.62 45.6496 59.7443 45.0066 59.7443H42.1926L42.2871 59.1626H45.0861C45.6065 59.1626 46.0688 59.0649 46.4732 58.8693C46.8809 58.6738 47.2123 58.3987 47.4675 58.044C47.726 57.6894 47.8951 57.2734 47.9746 56.7962C48.0542 56.3089 48.0243 55.8864 47.8851 55.5284C47.7459 55.1671 47.5056 54.8887 47.1642 54.6932C46.8229 54.4943 46.3903 54.3949 45.8667 54.3949H43.3659L41.775 64H41.1536ZM46.1053 59.3864L47.8404 64H47.1394L45.4142 59.3864H46.1053ZM54.291 54.3949L54.3904 53.8182H61.5247L61.4252 54.3949H58.1689L56.5779 64H55.9565L57.5474 54.3949H54.291Z" fill="black"/>
<path d="M79.7928 56.3885C79.8326 55.7422 79.6569 55.2235 79.2658 54.8324C78.878 54.438 78.3179 54.2408 77.5854 54.2408C77.0882 54.2408 76.6325 54.3319 76.2182 54.5142C75.8039 54.6965 75.4592 54.9467 75.1841 55.2649C74.9123 55.5798 74.7417 55.9394 74.6721 56.3438C74.629 56.6056 74.6406 56.8426 74.7069 57.0547C74.7765 57.2635 74.8908 57.4491 75.0499 57.6115C75.209 57.7739 75.4062 57.9181 75.6415 58.044C75.8768 58.1667 76.1403 58.2744 76.432 58.3672L77.4909 58.6953C77.8522 58.8113 78.182 58.9455 78.4803 59.098C78.7819 59.2505 79.0355 59.4328 79.2409 59.6449C79.4464 59.8537 79.5923 60.099 79.6784 60.3807C79.7679 60.6624 79.7812 60.9872 79.7182 61.3551C79.6287 61.902 79.4133 62.3875 79.0719 62.8118C78.7305 63.236 78.2881 63.5675 77.7445 63.8061C77.2009 64.0447 76.5745 64.1641 75.8652 64.1641C75.2123 64.1641 74.6588 64.053 74.2047 63.831C73.754 63.6089 73.4209 63.3007 73.2054 62.9062C72.99 62.5085 72.9071 62.0511 72.9569 61.5341H73.5932C73.5568 61.955 73.6313 62.3196 73.8169 62.6278C74.0025 62.9328 74.2793 63.1681 74.6472 63.3338C75.0184 63.4995 75.4576 63.5824 75.9647 63.5824C76.5149 63.5824 77.012 63.4879 77.4561 63.299C77.9036 63.1101 78.2715 62.8482 78.5598 62.5135C78.8515 62.1787 79.0338 61.791 79.1067 61.3501C79.1664 60.9922 79.1332 60.6839 79.0073 60.4254C78.8813 60.1669 78.6676 59.9448 78.3659 59.7592C78.0676 59.5703 77.6882 59.4046 77.2275 59.2621L76.084 58.9041C75.3283 58.6622 74.7765 58.334 74.4284 57.9197C74.0804 57.5021 73.9561 56.9834 74.0556 56.3636C74.1484 55.83 74.3655 55.361 74.7069 54.9567C75.0482 54.5523 75.4775 54.2358 75.9945 54.0071C76.5115 53.7784 77.075 53.6641 77.6848 53.6641C78.2914 53.6641 78.8068 53.7817 79.231 54.017C79.6586 54.2491 79.9734 54.5705 80.1756 54.9815C80.3811 55.3925 80.4557 55.8615 80.3993 56.3885H79.7928ZM94.1657 58.9339C93.9933 59.9813 93.6619 60.8961 93.1713 61.6783C92.6808 62.4571 92.0776 63.062 91.3617 63.4929C90.6491 63.9238 89.8719 64.1392 89.03 64.1392C88.1683 64.1392 87.4474 63.9205 86.8674 63.483C86.2907 63.0455 85.8846 62.4323 85.6493 61.6435C85.4173 60.8546 85.3858 59.9349 85.5549 58.8842C85.7338 57.8369 86.0686 56.9238 86.5591 56.1449C87.053 55.3627 87.6578 54.7562 88.3738 54.3253C89.0897 53.8944 89.8702 53.679 90.7154 53.679C91.5605 53.679 92.2731 53.8977 92.8532 54.3352C93.4332 54.7694 93.8408 55.3809 94.0762 56.1697C94.3148 56.9553 94.3446 57.8767 94.1657 58.9339ZM93.5641 58.8842C93.7232 57.9363 93.705 57.1177 93.5094 56.4283C93.3172 55.7389 92.9791 55.2086 92.4952 54.8374C92.0146 54.4628 91.418 54.2756 90.7054 54.2756C89.9763 54.2756 89.2968 54.4661 88.6671 54.8473C88.0373 55.2285 87.5021 55.7687 87.0613 56.468C86.6238 57.1641 86.3238 57.986 86.1614 58.9339C86.0023 59.8819 86.0189 60.7005 86.2111 61.3899C86.4034 62.076 86.7414 62.6063 87.2253 62.9808C87.7092 63.3554 88.3108 63.5426 89.03 63.5426C89.7658 63.5426 90.4486 63.352 91.0783 62.9709C91.7114 62.5864 92.2466 62.0462 92.6841 61.3501C93.1216 60.6508 93.415 59.8288 93.5641 58.8842ZM107.845 53.8182H108.466L107.353 60.5597C107.24 61.2524 106.978 61.8705 106.567 62.4141C106.156 62.9543 105.641 63.3819 105.021 63.6967C104.405 64.0083 103.729 64.1641 102.993 64.1641C102.267 64.1641 101.647 64.0083 101.133 63.6967C100.62 63.3819 100.247 62.9527 100.015 62.4091C99.7827 61.8655 99.7231 61.2491 99.8358 60.5597L100.949 53.8182H101.571L100.462 60.5249C100.366 61.1115 100.411 61.6335 100.596 62.0909C100.782 62.5483 101.085 62.9096 101.506 63.1747C101.927 63.4366 102.446 63.5675 103.062 63.5675C103.675 63.5675 104.242 63.4366 104.763 63.1747C105.286 62.9096 105.722 62.5483 106.07 62.0909C106.418 61.6335 106.639 61.1115 106.731 60.5249L107.845 53.8182ZM113.218 64L114.908 53.8182H118.045C118.688 53.8182 119.22 53.9441 119.641 54.196C120.066 54.4446 120.364 54.7926 120.536 55.2401C120.712 55.6875 120.752 56.2062 120.656 56.7962C120.556 57.3795 120.346 57.8932 120.024 58.3374C119.703 58.7782 119.29 59.1229 118.786 59.3714C118.286 59.62 117.714 59.7443 117.071 59.7443H114.257L114.352 59.1626H117.151C117.671 59.1626 118.133 59.0649 118.538 58.8693C118.945 58.6738 119.277 58.3987 119.532 58.044C119.79 57.6894 119.96 57.2734 120.039 56.7962C120.119 56.3089 120.089 55.8864 119.95 55.5284C119.81 55.1671 119.57 54.8887 119.229 54.6932C118.887 54.4943 118.455 54.3949 117.931 54.3949H115.43L113.839 64H113.218ZM118.17 59.3864L119.905 64H119.204L117.479 59.3864H118.17ZM134.335 57H133.708C133.702 56.6553 133.634 56.3222 133.505 56.0007C133.379 55.6759 133.195 55.3842 132.953 55.1257C132.711 54.8639 132.414 54.6567 132.063 54.5043C131.712 54.3518 131.307 54.2756 130.85 54.2756C130.177 54.2756 129.529 54.4562 128.906 54.8175C128.283 55.1754 127.744 55.7008 127.29 56.3935C126.839 57.0862 126.533 57.933 126.37 58.9339C126.201 59.9349 126.228 60.7784 126.45 61.4645C126.672 62.1473 127.032 62.6643 127.529 63.0156C128.029 63.367 128.613 63.5426 129.279 63.5426C129.739 63.5426 130.174 63.468 130.581 63.3189C130.989 63.1664 131.357 62.9609 131.685 62.7024C132.016 62.4406 132.301 62.1473 132.54 61.8224C132.779 61.4976 132.959 61.1629 133.082 60.8182H133.718C133.576 61.2292 133.367 61.6319 133.092 62.0263C132.82 62.4207 132.492 62.7786 132.108 63.1001C131.723 63.4183 131.289 63.6719 130.805 63.8608C130.321 64.0464 129.794 64.1392 129.224 64.1392C128.376 64.1392 127.661 63.9221 127.081 63.4879C126.501 63.0504 126.092 62.4373 125.853 61.6484C125.618 60.8596 125.588 59.9382 125.764 58.8842C125.936 57.8369 126.268 56.9238 126.758 56.1449C127.252 55.3627 127.855 54.7562 128.568 54.3253C129.284 53.8944 130.064 53.679 130.909 53.679C131.483 53.679 131.983 53.7734 132.411 53.9624C132.838 54.148 133.193 54.3999 133.475 54.718C133.76 55.0329 133.974 55.3875 134.116 55.782C134.259 56.1764 134.332 56.5824 134.335 57ZM139.085 64L140.776 53.8182H146.443L146.344 54.3949H141.298L140.602 58.6158H145.344L145.245 59.1925H140.502L139.806 63.4233H144.972L144.872 64H139.085Z" fill="#E51515"/>
</svg>
