<svg width="60" height="45" viewBox="0 0 60 45" fill="none" xmlns="http://www.w3.org/2000/svg">
<path d="M59.7841 39.1777C56.3185 34.6178 54.4421 29.0481 54.4421 23.3207V2.58955C54.4421 1.15966 53.3339 0 51.9673 0H8.03273C6.66609 0 5.55879 1.15966 5.55879 2.58955V23.3198C5.55879 29.0477 3.68204 34.6178 0.215742 39.1777C0.0760547 39.361 0 39.5878 0 39.8231V42.9341C0 44.0758 0.884531 45 1.97461 45H58.0254C59.1155 45 60 44.0758 60 42.9341V39.8231C60 39.5878 59.9239 39.361 59.7841 39.1777ZM9.04992 16.0746C9.04992 9.21478 14.6109 3.65381 21.4707 3.65381H38.5292C45.389 3.65381 50.95 9.21478 50.95 16.0746C50.95 22.9344 45.389 28.4953 38.5292 28.4953H21.4707C14.6109 28.4953 9.04992 22.9344 9.04992 16.0746ZM35.6393 40.9812C35.6393 41.8438 34.94 42.5431 34.0774 42.5431H25.9226C25.06 42.5431 24.3607 41.8438 24.3607 40.9812C24.3607 40.1185 25.06 39.4192 25.9226 39.4192H34.0774C34.94 39.4192 35.6393 40.1185 35.6393 40.9812Z" fill="white" style="transition: fill 0.5s ease-in-out;"/>
</svg>
